<?xml version="1.0" standalone="no"?>
<!DOCTYPE svg PUBLIC "-//W3C//DTD SVG 20010904//EN"
 "http://www.w3.org/TR/2001/REC-SVG-20010904/DTD/svg10.dtd">
<svg version="1.0" xmlns="http://www.w3.org/2000/svg"
 width="512.000000pt" height="512.000000pt" viewBox="0 0 512.000000 512.000000"
 preserveAspectRatio="xMidYMid meet">
<metadata>
Created by potrace 1.11, written by Peter Selinger 2001-2013
</metadata>
<g transform="translate(0.000000,512.000000) scale(0.100000,-0.100000)"
fill="#000000" stroke="none">
<path d="M2195 3953 c-65 -13 -189 -65 -201 -85 -3 -5 -82 -237 -175 -515
-121 -360 -171 -525 -176 -572 -8 -85 -7 -557 1 -636 9 -83 25 -207 32 -236 3
-13 8 -37 11 -54 10 -61 65 -218 95 -273 109 -200 270 -357 411 -399 50 -15
47 -1 -5 23 -60 27 -175 147 -229 240 -43 72 -110 235 -123 295 -3 13 -12 51
-20 85 -31 126 -53 257 -62 364 -7 82 -7 324 0 392 6 60 13 102 30 187 3 13
26 73 51 132 171 405 227 536 235 554 5 11 28 65 50 120 23 55 48 116 57 135
82 185 110 257 99 257 -6 0 -43 -6 -81 -14z"/>
<path d="M2843 3957 c9 -23 229 -542 314 -742 47 -110 93 -220 103 -245 10
-25 32 -74 48 -110 27 -62 45 -138 60 -255 9 -69 8 -375 -1 -460 -7 -64 -19
-141 -32 -205 -3 -14 -8 -38 -10 -55 -31 -173 -118 -391 -202 -507 -48 -66
-149 -157 -201 -180 -60 -27 -46 -33 21 -10 110 39 231 139 322 267 72 100
141 251 160 348 12 64 16 84 25 117 8 35 22 129 26 185 1 17 5 62 8 100 7 90
8 435 0 545 -5 76 -24 141 -175 595 -149 447 -173 513 -199 536 -32 27 -132
66 -190 74 -19 3 -46 7 -58 9 -16 4 -22 1 -19 -7z"/>
<path d="M1507 3914 c-1 -1 -56 -4 -122 -8 -66 -3 -131 -7 -145 -10 -14 -2
-41 -6 -60 -9 -107 -18 -313 -92 -435 -157 -89 -48 -222 -141 -295 -208 l-65
-59 45 -8 c68 -11 71 -12 125 -30 142 -47 271 -125 348 -211 83 -93 148 -241
163 -373 l7 -61 28 39 c52 70 166 135 264 149 55 8 139 8 210 -1 l60 -7 84
252 c47 139 87 258 90 263 3 6 6 15 7 20 1 6 27 83 58 173 31 90 56 167 56
171 0 8 -154 46 -230 57 -61 8 -190 20 -193 18z"/>
<path d="M3628 3916 c-1 -2 -43 -6 -93 -10 -93 -6 -102 -7 -223 -32 -136 -28
-134 9 -25 -311 52 -153 99 -291 103 -308 5 -16 30 -92 56 -167 l47 -136 26
10 c30 11 188 15 247 6 92 -15 187 -68 247 -138 39 -46 45 -48 44 -17 -1 33
10 95 29 157 52 176 188 327 365 408 96 44 243 87 261 76 3 -2 9 0 12 5 9 13
-81 96 -182 168 -117 83 -311 183 -407 210 -210 57 -234 61 -375 69 -58 3
-110 7 -117 9 -6 2 -13 2 -15 1z"/>
<path d="M265 3253 c-42 -7 -49 -14 -93 -106 -88 -184 -128 -365 -125 -567 2
-108 6 -144 29 -253 14 -62 22 -82 43 -97 48 -34 185 -91 251 -104 14 -3 36
-8 50 -11 14 -4 72 -8 130 -10 153 -6 302 34 421 112 l37 24 -20 62 c-23 72
-26 170 -7 262 14 74 6 127 -42 259 -80 221 -231 372 -419 420 -54 13 -195 18
-255 9z"/>
<path d="M4613 3245 c-24 -7 -43 -11 -43 -9 0 9 -127 -60 -165 -90 -90 -71
-165 -178 -215 -309 -44 -113 -63 -210 -50 -258 25 -91 20 -188 -16 -325 -5
-18 7 -27 88 -68 51 -26 104 -49 118 -52 179 -41 251 -42 415 -10 49 10 155
49 215 80 69 35 79 53 96 155 3 18 8 43 11 55 11 49 10 297 -3 377 -20 131
-70 283 -130 394 -27 50 -38 61 -65 67 -55 11 -211 7 -256 -7z"/>
<path d="M2215 3038 c-90 -17 -165 -82 -165 -146 0 -34 44 -86 97 -114 44 -22
62 -26 125 -24 80 3 89 5 133 28 45 24 76 63 82 101 l4 34 -95 47 c-53 27 -96
52 -96 57 0 18 -37 25 -85 17z"/>
<path d="M2813 3013 c-48 -34 -75 -48 -145 -77 -32 -12 -36 -18 -32 -40 12
-70 52 -109 138 -136 98 -31 246 12 283 83 44 85 -21 172 -145 195 -49 9 -53
8 -99 -25z"/>
<path d="M3531 2213 c-29 -72 -35 -233 -11 -332 52 -217 253 -379 508 -408
107 -13 266 -7 372 12 19 4 36 8 38 9 1 2 -28 6 -66 9 -181 17 -339 84 -442
188 -51 51 -120 155 -120 179 0 9 -3 20 -7 24 -5 4 -15 35 -23 68 -14 57 -17
62 -45 65 -55 6 -73 13 -105 39 -35 30 -67 86 -75 135 -8 44 -10 45 -24 12z"/>
<path d="M1567 2192 c-15 -88 -93 -163 -174 -166 -27 -1 -35 -6 -39 -26 -3
-14 -10 -43 -16 -65 -40 -167 -198 -328 -382 -390 -60 -19 -187 -45 -236 -46
-32 -1 -30 -2 20 -15 60 -16 284 -22 368 -11 138 18 289 92 376 182 123 129
168 337 115 538 -13 47 -25 47 -32 -1z"/>
<path d="M4040 2147 c0 -20 -55 -72 -96 -92 -40 -19 -41 -30 -12 -87 80 -159
220 -254 428 -293 60 -11 224 -6 308 10 9 2 21 4 25 4 12 1 76 67 112 115 38
50 125 188 125 198 0 5 -13 2 -30 -7 -37 -19 -197 -58 -210 -50 -5 3 -11 1
-14 -4 -7 -11 -178 -5 -241 9 -95 21 -162 48 -240 95 -51 31 -64 40 -121 89
-24 20 -34 24 -34 13z"/>
<path d="M1044 2128 c-33 -37 -161 -115 -231 -141 -101 -38 -166 -50 -267 -50
-102 -1 -155 6 -236 30 -30 9 -59 18 -65 19 -5 2 -21 6 -34 10 -25 7 -29 14
68 -136 24 -37 41 -58 94 -116 40 -43 56 -53 100 -62 67 -13 270 -14 328 -1
24 6 52 12 62 14 59 13 177 83 232 139 65 66 139 196 117 204 -31 10 -108 69
-117 90 -12 28 -27 28 -51 0z"/>
<path d="M2905 1469 c-109 -116 -307 -171 -460 -129 -80 23 -132 50 -200 105
-56 46 -68 45 -38 -3 43 -70 135 -128 238 -150 77 -17 220 -8 293 17 101 34
177 101 194 169 4 12 5 22 5 22 -1 0 -15 -14 -32 -31z"/>
</g>
</svg>
